<svg xmlns="http://www.w3.org/2000/svg" xmlns:xlink="http://www.w3.org/1999/xlink" width="1000" zoomAndPan="magnify" viewBox="0 0 750 749.999995" height="1000" preserveAspectRatio="xMidYMid meet" version="1.0"><defs><g/><clipPath id="id1"><path d="M 210.765625 46 L 440 46 L 440 416 L 210.765625 416 Z M 210.765625 46 " clip-rule="nonzero"/></clipPath><clipPath id="id2"><path d="M 210.765625 158 L 394 158 L 394 416 L 210.765625 416 Z M 210.765625 158 " clip-rule="nonzero"/></clipPath><clipPath id="id3"><path d="M 210.765625 138 L 539.265625 138 L 539.265625 498 L 210.765625 498 Z M 210.765625 138 " clip-rule="nonzero"/></clipPath></defs><g clip-path="url(#id1)"><path fill="rgb(100%, 62.748718%, 0%)" d="M 385.382812 113.410156 C 381.421875 105.679688 370.335938 105.660156 366.414062 113.410156 L 342.320312 158.859375 L 286.773438 51.613281 C 281.9375 42.640625 268.316406 44.910156 266.734375 54.953125 L 210.796875 415.640625 L 439.175781 217.996094 Z M 385.382812 113.410156 " fill-opacity="1" fill-rule="nonzero"/></g><g clip-path="url(#id2)"><path fill="rgb(96.078491%, 49.798584%, 9.01947%)" d="M 393.441406 257.574219 L 342.320312 158.871094 L 210.796875 415.640625 Z M 393.441406 257.574219 " fill-opacity="1" fill-rule="nonzero"/></g><g clip-path="url(#id3)"><path fill="rgb(100%, 79.219055%, 15.689087%)" d="M 496.757812 147.019531 C 495.421875 138.785156 485.308594 135.519531 479.40625 141.433594 L 210.796875 415.691406 L 359.433594 493.875 C 368.847656 499.132812 380.3125 499.132812 389.726562 493.886719 L 539.265625 415.722656 Z M 496.757812 147.019531 " fill-opacity="1" fill-rule="nonzero"/></g><g fill="rgb(0%, 0%, 0%)" fill-opacity="1"><g transform="translate(70.078125, 632.983813)"><g><path d="M 15.875 -9.453125 L 29.671875 -9.453125 L 29.671875 0 L 3.53125 0 L 3.53125 -44.421875 L 15.875 -44.421875 Z M 15.875 -9.453125 "/></g></g></g><g fill="rgb(0%, 0%, 0%)" fill-opacity="1"><g transform="translate(101.011161, 632.983813)"><g><path d="M 19.96875 0.4375 C 16.4375 0.4375 13.273438 -0.296875 10.484375 -1.765625 C 7.691406 -3.234375 5.5 -5.332031 3.90625 -8.0625 C 2.3125 -10.789062 1.515625 -14.003906 1.515625 -17.703125 C 1.515625 -21.359375 2.320312 -24.550781 3.9375 -27.28125 C 5.550781 -30.007812 7.753906 -32.109375 10.546875 -33.578125 C 13.335938 -35.046875 16.5 -35.78125 20.03125 -35.78125 C 23.5625 -35.78125 26.722656 -35.046875 29.515625 -33.578125 C 32.304688 -32.109375 34.507812 -30.007812 36.125 -27.28125 C 37.75 -24.550781 38.5625 -21.359375 38.5625 -17.703125 C 38.5625 -14.046875 37.75 -10.84375 36.125 -8.09375 C 34.507812 -5.34375 32.296875 -3.234375 29.484375 -1.765625 C 26.671875 -0.296875 23.5 0.4375 19.96875 0.4375 Z M 19.96875 -10.265625 C 21.6875 -10.265625 23.125 -10.90625 24.28125 -12.1875 C 25.4375 -13.46875 26.015625 -15.304688 26.015625 -17.703125 C 26.015625 -20.097656 25.4375 -21.925781 24.28125 -23.1875 C 23.125 -24.445312 21.707031 -25.078125 20.03125 -25.078125 C 18.351562 -25.078125 16.945312 -24.445312 15.8125 -23.1875 C 14.675781 -21.925781 14.109375 -20.097656 14.109375 -17.703125 C 14.109375 -15.265625 14.65625 -13.414062 15.75 -12.15625 C 16.84375 -10.894531 18.25 -10.265625 19.96875 -10.265625 Z M 19.96875 -10.265625 "/></g></g></g><g fill="rgb(0%, 0%, 0%)" fill-opacity="1"><g transform="translate(141.079213, 632.983813)"><g><path d="M 16.5625 -35.78125 C 18.957031 -35.78125 21.046875 -35.296875 22.828125 -34.328125 C 24.617188 -33.367188 26 -32.066406 26.96875 -30.421875 L 26.96875 -35.34375 L 39.3125 -35.34375 L 39.3125 -0.375 C 39.3125 2.9375 38.679688 5.925781 37.421875 8.59375 C 36.160156 11.257812 34.195312 13.390625 31.53125 14.984375 C 28.863281 16.585938 25.492188 17.390625 21.421875 17.390625 C 15.960938 17.390625 11.59375 16.109375 8.3125 13.546875 C 5.039062 10.984375 3.171875 7.5 2.703125 3.09375 L 14.875 3.09375 C 15.125 4.21875 15.75 5.09375 16.75 5.71875 C 17.757812 6.351562 19.0625 6.671875 20.65625 6.671875 C 24.863281 6.671875 26.96875 4.320312 26.96875 -0.375 L 26.96875 -4.90625 C 26 -3.269531 24.617188 -1.96875 22.828125 -1 C 21.046875 -0.0390625 18.957031 0.4375 16.5625 0.4375 C 13.75 0.4375 11.195312 -0.296875 8.90625 -1.765625 C 6.625 -3.234375 4.820312 -5.34375 3.5 -8.09375 C 2.175781 -10.84375 1.515625 -14.046875 1.515625 -17.703125 C 1.515625 -21.359375 2.175781 -24.550781 3.5 -27.28125 C 4.820312 -30.007812 6.625 -32.109375 8.90625 -33.578125 C 11.195312 -35.046875 13.75 -35.78125 16.5625 -35.78125 Z M 26.96875 -17.703125 C 26.96875 -19.972656 26.347656 -21.757812 25.109375 -23.0625 C 23.867188 -24.363281 22.34375 -25.015625 20.53125 -25.015625 C 18.6875 -25.015625 17.15625 -24.375 15.9375 -23.09375 C 14.71875 -21.8125 14.109375 -20.015625 14.109375 -17.703125 C 14.109375 -15.429688 14.71875 -13.632812 15.9375 -12.3125 C 17.15625 -10.988281 18.6875 -10.328125 20.53125 -10.328125 C 22.34375 -10.328125 23.867188 -10.976562 25.109375 -12.28125 C 26.347656 -13.582031 26.96875 -15.390625 26.96875 -17.703125 Z M 26.96875 -17.703125 "/></g></g></g><g fill="rgb(0%, 0%, 0%)" fill-opacity="1"><g transform="translate(183.919275, 632.983813)"><g><path d="M 9.765625 -38.625 C 7.578125 -38.625 5.820312 -39.21875 4.5 -40.40625 C 3.175781 -41.601562 2.515625 -43.109375 2.515625 -44.921875 C 2.515625 -46.765625 3.175781 -48.296875 4.5 -49.515625 C 5.820312 -50.734375 7.578125 -51.34375 9.765625 -51.34375 C 11.910156 -51.34375 13.644531 -50.734375 14.96875 -49.515625 C 16.289062 -48.296875 16.953125 -46.765625 16.953125 -44.921875 C 16.953125 -43.109375 16.289062 -41.601562 14.96875 -40.40625 C 13.644531 -39.21875 11.910156 -38.625 9.765625 -38.625 Z M 15.875 -35.34375 L 15.875 0 L 3.53125 0 L 3.53125 -35.34375 Z M 15.875 -35.34375 "/></g></g></g><g fill="rgb(0%, 0%, 0%)" fill-opacity="1"><g transform="translate(203.323304, 632.983813)"><g><path d="M 26.65625 -35.65625 C 30.726562 -35.65625 33.957031 -34.300781 36.34375 -31.59375 C 38.738281 -28.882812 39.9375 -25.21875 39.9375 -20.59375 L 39.9375 0 L 27.59375 0 L 27.59375 -18.96875 C 27.59375 -20.976562 27.066406 -22.5625 26.015625 -23.71875 C 24.960938 -24.875 23.554688 -25.453125 21.796875 -25.453125 C 19.953125 -25.453125 18.503906 -24.875 17.453125 -23.71875 C 16.398438 -22.5625 15.875 -20.976562 15.875 -18.96875 L 15.875 0 L 3.53125 0 L 3.53125 -35.34375 L 15.875 -35.34375 L 15.875 -30.296875 C 16.96875 -31.898438 18.4375 -33.191406 20.28125 -34.171875 C 22.132812 -35.160156 24.257812 -35.65625 26.65625 -35.65625 Z M 26.65625 -35.65625 "/></g></g></g><g fill="rgb(0%, 0%, 0%)" fill-opacity="1"><g transform="translate(246.541365, 632.983813)"><g/></g></g><g fill="rgb(0%, 0%, 0%)" fill-opacity="1"><g transform="translate(258.574369, 632.983813)"><g><path d="M 55.75 -35.34375 L 46.75 0 L 32.890625 0 L 27.96875 -21.421875 L 22.875 0 L 9.078125 0 L 0.125 -35.34375 L 12.40625 -35.34375 L 16.375 -11.90625 L 21.609375 -35.34375 L 34.84375 -35.34375 L 40.25 -11.84375 L 44.15625 -35.34375 Z M 55.75 -35.34375 "/></g></g></g><g fill="rgb(0%, 0%, 0%)" fill-opacity="1"><g transform="translate(314.329433, 632.983813)"><g><path d="M 9.765625 -38.625 C 7.578125 -38.625 5.820312 -39.21875 4.5 -40.40625 C 3.175781 -41.601562 2.515625 -43.109375 2.515625 -44.921875 C 2.515625 -46.765625 3.175781 -48.296875 4.5 -49.515625 C 5.820312 -50.734375 7.578125 -51.34375 9.765625 -51.34375 C 11.910156 -51.34375 13.644531 -50.734375 14.96875 -49.515625 C 16.289062 -48.296875 16.953125 -46.765625 16.953125 -44.921875 C 16.953125 -43.109375 16.289062 -41.601562 14.96875 -40.40625 C 13.644531 -39.21875 11.910156 -38.625 9.765625 -38.625 Z M 15.875 -35.34375 L 15.875 0 L 3.53125 0 L 3.53125 -35.34375 Z M 15.875 -35.34375 "/></g></g></g><g fill="rgb(0%, 0%, 0%)" fill-opacity="1"><g transform="translate(333.733461, 632.983813)"><g><path d="M 24.375 -10.515625 L 24.375 0 L 19.03125 0 C 10 0 5.484375 -4.472656 5.484375 -13.421875 L 5.484375 -25.078125 L 1.140625 -25.078125 L 1.140625 -35.34375 L 5.484375 -35.34375 L 5.484375 -43.90625 L 17.890625 -43.90625 L 17.890625 -35.34375 L 24.3125 -35.34375 L 24.3125 -25.078125 L 17.890625 -25.078125 L 17.890625 -13.234375 C 17.890625 -12.265625 18.109375 -11.566406 18.546875 -11.140625 C 18.992188 -10.722656 19.742188 -10.515625 20.796875 -10.515625 Z M 24.375 -10.515625 "/></g></g></g><g fill="rgb(0%, 0%, 0%)" fill-opacity="1"><g transform="translate(360.256493, 632.983813)"><g><path d="M 26.78125 -35.65625 C 30.8125 -35.65625 34.007812 -34.300781 36.375 -31.59375 C 38.75 -28.882812 39.9375 -25.21875 39.9375 -20.59375 L 39.9375 0 L 27.59375 0 L 27.59375 -18.96875 C 27.59375 -20.976562 27.066406 -22.5625 26.015625 -23.71875 C 24.960938 -24.875 23.554688 -25.453125 21.796875 -25.453125 C 19.953125 -25.453125 18.503906 -24.875 17.453125 -23.71875 C 16.398438 -22.5625 15.875 -20.976562 15.875 -18.96875 L 15.875 0 L 3.53125 0 L 3.53125 -46.625 L 15.875 -46.625 L 15.875 -30.296875 C 16.96875 -31.898438 18.445312 -33.191406 20.3125 -34.171875 C 22.1875 -35.160156 24.34375 -35.65625 26.78125 -35.65625 Z M 26.78125 -35.65625 "/></g></g></g><g fill="rgb(0%, 0%, 0%)" fill-opacity="1"><g transform="translate(403.474554, 632.983813)"><g/></g></g><g fill="rgb(0%, 0%, 0%)" fill-opacity="1"><g transform="translate(415.507558, 632.983813)"><g><path d="M 33.640625 -44.421875 L 33.640625 -34.59375 L 15.875 -34.59375 L 15.875 -26.78125 L 28.984375 -26.78125 L 28.984375 -17.390625 L 15.875 -17.390625 L 15.875 0 L 3.53125 0 L 3.53125 -44.421875 Z M 33.640625 -44.421875 "/></g></g></g><g fill="rgb(0%, 0%, 0%)" fill-opacity="1"><g transform="translate(450.850597, 632.983813)"><g><path d="M 9.765625 -38.625 C 7.578125 -38.625 5.820312 -39.21875 4.5 -40.40625 C 3.175781 -41.601562 2.515625 -43.109375 2.515625 -44.921875 C 2.515625 -46.765625 3.175781 -48.296875 4.5 -49.515625 C 5.820312 -50.734375 7.578125 -51.34375 9.765625 -51.34375 C 11.910156 -51.34375 13.644531 -50.734375 14.96875 -49.515625 C 16.289062 -48.296875 16.953125 -46.765625 16.953125 -44.921875 C 16.953125 -43.109375 16.289062 -41.601562 14.96875 -40.40625 C 13.644531 -39.21875 11.910156 -38.625 9.765625 -38.625 Z M 15.875 -35.34375 L 15.875 0 L 3.53125 0 L 3.53125 -35.34375 Z M 15.875 -35.34375 "/></g></g></g><g fill="rgb(0%, 0%, 0%)" fill-opacity="1"><g transform="translate(470.254649, 632.983813)"><g><path d="M 15.875 -29.109375 C 17.257812 -31.117188 18.9375 -32.710938 20.90625 -33.890625 C 22.882812 -35.066406 25.007812 -35.65625 27.28125 -35.65625 L 27.28125 -22.484375 L 23.8125 -22.484375 C 21.125 -22.484375 19.128906 -21.957031 17.828125 -20.90625 C 16.523438 -19.863281 15.875 -18.039062 15.875 -15.4375 L 15.875 0 L 3.53125 0 L 3.53125 -35.34375 L 15.875 -35.34375 Z M 15.875 -29.109375 "/></g></g></g><g fill="rgb(0%, 0%, 0%)" fill-opacity="1"><g transform="translate(498.415673, 632.983813)"><g><path d="M 37.296875 -18.078125 C 37.296875 -17.109375 37.234375 -16.144531 37.109375 -15.1875 L 13.734375 -15.1875 C 13.859375 -13.25 14.394531 -11.804688 15.34375 -10.859375 C 16.289062 -9.921875 17.5 -9.453125 18.96875 -9.453125 C 21.019531 -9.453125 22.488281 -10.375 23.375 -12.21875 L 36.546875 -12.21875 C 35.992188 -9.78125 34.929688 -7.601562 33.359375 -5.6875 C 31.785156 -3.78125 29.800781 -2.28125 27.40625 -1.1875 C 25.007812 -0.101562 22.363281 0.4375 19.46875 0.4375 C 15.976562 0.4375 12.878906 -0.296875 10.171875 -1.765625 C 7.460938 -3.234375 5.34375 -5.332031 3.8125 -8.0625 C 2.28125 -10.789062 1.515625 -14.003906 1.515625 -17.703125 C 1.515625 -21.398438 2.269531 -24.601562 3.78125 -27.3125 C 5.289062 -30.019531 7.398438 -32.109375 10.109375 -33.578125 C 12.816406 -35.046875 15.9375 -35.78125 19.46875 -35.78125 C 22.957031 -35.78125 26.046875 -35.066406 28.734375 -33.640625 C 31.421875 -32.210938 33.519531 -30.164062 35.03125 -27.5 C 36.539062 -24.832031 37.296875 -21.691406 37.296875 -18.078125 Z M 24.703125 -21.171875 C 24.703125 -22.679688 24.195312 -23.863281 23.1875 -24.71875 C 22.175781 -25.582031 20.914062 -26.015625 19.40625 -26.015625 C 17.894531 -26.015625 16.65625 -25.601562 15.6875 -24.78125 C 14.71875 -23.96875 14.085938 -22.765625 13.796875 -21.171875 Z M 24.703125 -21.171875 "/></g></g></g><g fill="rgb(0%, 0%, 0%)" fill-opacity="1"><g transform="translate(537.223731, 632.983813)"><g><path d="M 15.875 -30.421875 C 16.84375 -32.109375 18.207031 -33.421875 19.96875 -34.359375 C 21.726562 -35.304688 23.804688 -35.78125 26.203125 -35.78125 C 29.015625 -35.78125 31.566406 -35.046875 33.859375 -33.578125 C 36.148438 -32.109375 37.957031 -30.007812 39.28125 -27.28125 C 40.601562 -24.550781 41.265625 -21.359375 41.265625 -17.703125 C 41.265625 -14.046875 40.601562 -10.84375 39.28125 -8.09375 C 37.957031 -5.34375 36.148438 -3.234375 33.859375 -1.765625 C 31.566406 -0.296875 29.015625 0.4375 26.203125 0.4375 C 23.804688 0.4375 21.726562 -0.03125 19.96875 -0.96875 C 18.207031 -1.914062 16.84375 -3.226562 15.875 -4.90625 L 15.875 0 L 3.53125 0 L 3.53125 -46.625 L 15.875 -46.625 Z M 28.734375 -17.703125 C 28.734375 -20.015625 28.113281 -21.8125 26.875 -23.09375 C 25.632812 -24.375 24.109375 -25.015625 22.296875 -25.015625 C 20.492188 -25.015625 18.972656 -24.363281 17.734375 -23.0625 C 16.492188 -21.757812 15.875 -19.972656 15.875 -17.703125 C 15.875 -15.390625 16.492188 -13.582031 17.734375 -12.28125 C 18.972656 -10.976562 20.492188 -10.328125 22.296875 -10.328125 C 24.109375 -10.328125 25.632812 -10.988281 26.875 -12.3125 C 28.113281 -13.632812 28.734375 -15.429688 28.734375 -17.703125 Z M 28.734375 -17.703125 "/></g></g></g><g fill="rgb(0%, 0%, 0%)" fill-opacity="1"><g transform="translate(580.063818, 632.983813)"><g><path d="M 1.515625 -17.703125 C 1.515625 -21.359375 2.175781 -24.550781 3.5 -27.28125 C 4.820312 -30.007812 6.625 -32.109375 8.90625 -33.578125 C 11.195312 -35.046875 13.75 -35.78125 16.5625 -35.78125 C 19 -35.78125 21.097656 -35.296875 22.859375 -34.328125 C 24.628906 -33.367188 26 -32.066406 26.96875 -30.421875 L 26.96875 -35.34375 L 39.3125 -35.34375 L 39.3125 0 L 26.96875 0 L 26.96875 -4.90625 C 26 -3.269531 24.617188 -1.96875 22.828125 -1 C 21.046875 -0.0390625 18.957031 0.4375 16.5625 0.4375 C 13.75 0.4375 11.195312 -0.296875 8.90625 -1.765625 C 6.625 -3.234375 4.820312 -5.34375 3.5 -8.09375 C 2.175781 -10.84375 1.515625 -14.046875 1.515625 -17.703125 Z M 26.96875 -17.703125 C 26.96875 -19.972656 26.347656 -21.757812 25.109375 -23.0625 C 23.867188 -24.363281 22.34375 -25.015625 20.53125 -25.015625 C 18.6875 -25.015625 17.15625 -24.375 15.9375 -23.09375 C 14.71875 -21.8125 14.109375 -20.015625 14.109375 -17.703125 C 14.109375 -15.429688 14.71875 -13.632812 15.9375 -12.3125 C 17.15625 -10.988281 18.6875 -10.328125 20.53125 -10.328125 C 22.34375 -10.328125 23.867188 -10.976562 25.109375 -12.28125 C 26.347656 -13.582031 26.96875 -15.390625 26.96875 -17.703125 Z M 26.96875 -17.703125 "/></g></g></g><g fill="rgb(0%, 0%, 0%)" fill-opacity="1"><g transform="translate(622.903904, 632.983813)"><g><path d="M 18.578125 0.4375 C 15.390625 0.4375 12.546875 -0.09375 10.046875 -1.15625 C 7.546875 -2.226562 5.570312 -3.695312 4.125 -5.5625 C 2.675781 -7.4375 1.867188 -9.550781 1.703125 -11.90625 L 13.671875 -11.90625 C 13.835938 -10.769531 14.359375 -9.882812 15.234375 -9.25 C 16.117188 -8.625 17.210938 -8.3125 18.515625 -8.3125 C 19.523438 -8.3125 20.320312 -8.519531 20.90625 -8.9375 C 21.5 -9.363281 21.796875 -9.910156 21.796875 -10.578125 C 21.796875 -11.460938 21.3125 -12.113281 20.34375 -12.53125 C 19.382812 -12.957031 17.789062 -13.421875 15.5625 -13.921875 C 13.039062 -14.421875 10.9375 -14.984375 9.25 -15.609375 C 7.570312 -16.242188 6.113281 -17.273438 4.875 -18.703125 C 3.644531 -20.140625 3.03125 -22.070312 3.03125 -24.5 C 3.03125 -26.601562 3.59375 -28.503906 4.71875 -30.203125 C 5.851562 -31.910156 7.523438 -33.265625 9.734375 -34.265625 C 11.941406 -35.273438 14.597656 -35.78125 17.703125 -35.78125 C 22.328125 -35.78125 25.960938 -34.644531 28.609375 -32.375 C 31.253906 -30.113281 32.785156 -27.132812 33.203125 -23.4375 L 22.046875 -23.4375 C 21.835938 -24.570312 21.34375 -25.441406 20.5625 -26.046875 C 19.789062 -26.660156 18.753906 -26.96875 17.453125 -26.96875 C 16.441406 -26.96875 15.671875 -26.773438 15.140625 -26.390625 C 14.617188 -26.015625 14.359375 -25.492188 14.359375 -24.828125 C 14.359375 -23.984375 14.84375 -23.335938 15.8125 -22.890625 C 16.78125 -22.453125 18.332031 -22.003906 20.46875 -21.546875 C 23.03125 -21.003906 25.160156 -20.394531 26.859375 -19.71875 C 28.566406 -19.050781 30.0625 -17.96875 31.34375 -16.46875 C 32.625 -14.976562 33.265625 -12.953125 33.265625 -10.390625 C 33.265625 -8.335938 32.664062 -6.488281 31.46875 -4.84375 C 30.269531 -3.207031 28.566406 -1.914062 26.359375 -0.96875 C 24.160156 -0.03125 21.566406 0.4375 18.578125 0.4375 Z M 18.578125 0.4375 "/></g></g></g><g fill="rgb(0%, 0%, 0%)" fill-opacity="1"><g transform="translate(658.687929, 632.983813)"><g><path d="M 37.296875 -18.078125 C 37.296875 -17.109375 37.234375 -16.144531 37.109375 -15.1875 L 13.734375 -15.1875 C 13.859375 -13.25 14.394531 -11.804688 15.34375 -10.859375 C 16.289062 -9.921875 17.5 -9.453125 18.96875 -9.453125 C 21.019531 -9.453125 22.488281 -10.375 23.375 -12.21875 L 36.546875 -12.21875 C 35.992188 -9.78125 34.929688 -7.601562 33.359375 -5.6875 C 31.785156 -3.78125 29.800781 -2.28125 27.40625 -1.1875 C 25.007812 -0.101562 22.363281 0.4375 19.46875 0.4375 C 15.976562 0.4375 12.878906 -0.296875 10.171875 -1.765625 C 7.460938 -3.234375 5.34375 -5.332031 3.8125 -8.0625 C 2.28125 -10.789062 1.515625 -14.003906 1.515625 -17.703125 C 1.515625 -21.398438 2.269531 -24.601562 3.78125 -27.3125 C 5.289062 -30.019531 7.398438 -32.109375 10.109375 -33.578125 C 12.816406 -35.046875 15.9375 -35.78125 19.46875 -35.78125 C 22.957031 -35.78125 26.046875 -35.066406 28.734375 -33.640625 C 31.421875 -32.210938 33.519531 -30.164062 35.03125 -27.5 C 36.539062 -24.832031 37.296875 -21.691406 37.296875 -18.078125 Z M 24.703125 -21.171875 C 24.703125 -22.679688 24.195312 -23.863281 23.1875 -24.71875 C 22.175781 -25.582031 20.914062 -26.015625 19.40625 -26.015625 C 17.894531 -26.015625 16.65625 -25.601562 15.6875 -24.78125 C 14.71875 -23.96875 14.085938 -22.765625 13.796875 -21.171875 Z M 24.703125 -21.171875 "/></g></g></g></svg>